<?xml version="1.0" encoding="utf-8"?>
<!-- Generator: Adobe Illustrator 17.1.0, SVG Export Plug-In . SVG Version: 6.00 Build 0)  -->
<!DOCTYPE svg PUBLIC "-//W3C//DTD SVG 1.1//EN" "http://www.w3.org/Graphics/SVG/1.1/DTD/svg11.dtd">
<svg version="1.1" id="Layer_1" xmlns="http://www.w3.org/2000/svg" xmlns:xlink="http://www.w3.org/1999/xlink" x="0px" y="0px"
	 viewBox="0 0 99 53.3" enable-background="new 0 0 99 53.3" xml:space="preserve">
<g>
	<path d="M55.7,50.3h38c0.5,0,0.8-0.4,0.8-0.8s-0.4-0.8-0.8-0.8h-38L75,43.5c0,0,0,0,0,0l9.5-2.5c0.4-0.1,0.7-0.6,0.6-1
		c-0.1-0.4-0.6-0.7-1-0.6l-9.5,2.5c0,0,0,0,0,0l-19.3,5.2l17.4-10c0.4-0.2,0.5-0.7,0.3-1.1c-0.2-0.4-0.7-0.5-1.1-0.3l-17.4,10
		l14.2-14.2c0.3-0.3,0.3-0.8,0-1.2s-0.8-0.3-1.2,0L53.3,44.5l10-17.4c0.2-0.4,0.1-0.9-0.3-1.1c-0.4-0.2-0.9-0.1-1.1,0.3l-10,17.4
		l5.2-19.3c0,0,0,0,0,0l2.5-9.5c0.1-0.4-0.1-0.9-0.6-1s-0.9,0.1-1,0.6L55.5,24c0,0,0,0,0,0l-5.2,19.3v-38c0-0.5-0.4-0.8-0.8-0.8
		c-0.5,0-0.8,0.4-0.8,0.8v38L43.5,24c0,0,0,0,0,0L41,14.5c-0.1-0.4-0.6-0.7-1-0.6c-0.4,0.1-0.7,0.6-0.6,1l2.5,9.5c0,0,0,0,0,0
		l5.2,19.3l-10-17.4c-0.2-0.4-0.7-0.5-1.1-0.3c-0.4,0.2-0.5,0.7-0.3,1.1l10,17.4L31.5,30.3c-0.3-0.3-0.8-0.3-1.2,0s-0.3,0.8,0,1.2
		l14.2,14.2l-17.4-10c-0.4-0.2-0.9-0.1-1.1,0.3s-0.1,0.9,0.3,1.1l17.4,10l-19.3-5.2c0,0,0,0,0,0l-9.5-2.5c-0.4-0.1-0.9,0.1-1,0.6
		s0.1,0.9,0.6,1l28.8,7.7h-38c-0.5,0-0.8,0.4-0.8,0.8s0.4,0.8,0.8,0.8h38"/>
	<path d="M55.3,51.9"/>
	<path d="M54.5,53.3"/>
	<path d="M44.5,53.3"/>
	<path d="M43.7,51.9"/>
	<path d="M98.2,48.7H97c-0.5,0-0.8,0.4-0.8,0.8s0.4,0.8,0.8,0.8h1.2c0.5,0,0.8-0.4,0.8-0.8S98.6,48.7,98.2,48.7z"/>
	<path d="M87.4,40.1c0.1,0,0.1,0,0.2,0l1.3-0.4c0.4-0.1,0.7-0.6,0.6-1c-0.1-0.4-0.6-0.7-1-0.6l-1.3,0.4c-0.4,0.1-0.7,0.6-0.6,1
		C86.7,39.9,87.1,40.1,87.4,40.1z"/>
	<path d="M59.4,12.3c0.1,0,0.1,0,0.2,0c0.4,0,0.7-0.2,0.8-0.6l0.4-1.3c0.1-0.4-0.1-0.9-0.6-1c-0.4-0.1-0.9,0.1-1,0.6l-0.4,1.3
		C58.7,11.8,59,12.2,59.4,12.3z"/>
	<path d="M49.5,2.8c0.5,0,0.8-0.4,0.8-0.8V0.8c0-0.5-0.4-0.8-0.8-0.8c-0.5,0-0.8,0.4-0.8,0.8V2C48.7,2.5,49,2.8,49.5,2.8z"/>
	<path d="M38.5,11.8c0.1,0.4,0.4,0.6,0.8,0.6c0.1,0,0.1,0,0.2,0c0.4-0.1,0.7-0.6,0.6-1L39.8,10c-0.1-0.4-0.6-0.7-1-0.6
		c-0.4,0.1-0.7,0.6-0.6,1L38.5,11.8z"/>
	<path d="M10,39.8l1.3,0.4c0.1,0,0.1,0,0.2,0c0.4,0,0.7-0.2,0.8-0.6c0.1-0.4-0.1-0.9-0.6-1l-1.3-0.4c-0.4-0.1-0.9,0.1-1,0.6
		C9.3,39.2,9.6,39.6,10,39.8z"/>
	<path d="M2,48.7H0.8C0.4,48.7,0,49,0,49.5s0.4,0.8,0.8,0.8H2c0.5,0,0.8-0.4,0.8-0.8S2.5,48.7,2,48.7z"/>
</g>
</svg>
