<?xml version="1.0" encoding="utf-8"?>
<!-- Generator: Adobe Illustrator 17.1.0, SVG Export Plug-In . SVG Version: 6.00 Build 0)  -->
<!DOCTYPE svg PUBLIC "-//W3C//DTD SVG 1.1//EN" "http://www.w3.org/Graphics/SVG/1.1/DTD/svg11.dtd">
<svg version="1.1" id="Layer_1" xmlns="http://www.w3.org/2000/svg" xmlns:xlink="http://www.w3.org/1999/xlink" x="0px" y="0px"
	 viewBox="0 0 218.5 151.8" enable-background="new 0 0 218.5 151.8" xml:space="preserve">
<g>
	<polygon fill="#FFFFFF" points="44.3,1.9 1.8,53.3 113.6,149.9 216.7,53.5 173,1.9 	"/>
	<g>
		<path d="M43,0.6C28.8,17.8,14.7,34.9,0.5,52c-0.6,0.7-0.8,1.9,0,2.6c35.8,30.9,71.6,61.9,107.4,92.8c1.5,1.3,2.9,2.5,4.4,3.8
			c0.8,0.7,1.8,0.7,2.6,0c33.8-31.6,67.5-63.2,101.3-94.7c0.6-0.6,1.2-1.1,1.8-1.7c0.8-0.7,0.6-1.9,0-2.6
			C203.5,35.1,189,18,174.5,0.8c-1-1.2-3.1-0.8-4.5-0.8c-4.2,0-8.4,0-12.6,0c-14.3,0-28.6,0-42.9,0c-23.4,0-46.8,0-70.2,0
			c-2.4,0-2.4,3.7,0,3.7c21.8,0,43.5,0,65.3,0c14.8,0,29.6,0,44.3,0c4.7,0,9.5,0,14.2,0c1.2,0,2.4,0,3.7,0c1.8,0,0.4,0.2,0-0.4
			c14.5,17.2,29.1,34.3,43.6,51.5c0-0.9,0-1.7,0-2.6c-33.8,31.6-67.5,63.2-101.3,94.7c-0.6,0.6-1.2,1.1-1.8,1.7c0.9,0,1.7,0,2.6,0
			C79.1,117.7,43.3,86.8,7.5,55.8C6,54.6,4.6,53.3,3.1,52c0,0.9,0,1.7,0,2.6C17.3,37.5,31.4,20.4,45.6,3.2C47.1,1.4,44.5-1.2,43,0.6
			z"/>
	</g>
</g>
<g>
	<line fill="none" x1="1.8" y1="53.3" x2="214" y2="53.3"/>
	<g>
		<path d="M1.8,55.2c47.2,0,94.4,0,141.6,0c23.5,0,47.1,0,70.6,0c2.4,0,2.4-3.7,0-3.7c-47.2,0-94.4,0-141.6,0c-23.5,0-47.1,0-70.6,0
			C-0.5,51.5-0.5,55.2,1.8,55.2L1.8,55.2z"/>
	</g>
</g>
<g>
	<polyline fill="#FFFFFF" points="44.3,4.9 74,53.3 111.8,1.9 151,52.2 171.7,4.7 	"/>
	<g>
		<path d="M42.7,5.8c9.9,16.2,19.8,32.3,29.7,48.5c0.8,1.3,2.4,1.1,3.2,0C88.2,37.1,100.8,20,113.4,2.8c-1,0.1-1.9,0.2-2.9,0.4
			c13.1,16.7,26.1,33.5,39.2,50.2c0.7,0.9,2.4,0.6,2.9-0.4c6.9-15.8,13.8-31.6,20.7-47.4c0.9-2.1-2.2-4-3.2-1.9
			c-6.9,15.8-13.8,31.6-20.7,47.4c1-0.1,1.9-0.2,2.9-0.4c-13.1-16.7-26.1-33.5-39.2-50.2c-0.8-1-2.3-0.5-2.9,0.4
			C97.6,18.1,85,35.3,72.5,52.4c1.1,0,2.1,0,3.2,0C65.7,36.3,55.8,20.1,45.9,3.9C44.7,1.9,41.5,3.8,42.7,5.8L42.7,5.8z"/>
	</g>
</g>
<g>
	<polygon fill="#FFFFFF" points="73.2,53.3 113.6,149.9 151,53.1 	"/>
	<g>
		<path d="M71.4,53.8c13.5,32.2,26.9,64.4,40.4,96.6c0.7,1.7,2.9,1.8,3.5,0c12.5-32.3,24.9-64.5,37.4-96.8c0.4-1.1-0.7-2.3-1.8-2.3
			c-25.9,0.1-51.9,0.1-77.8,0.2c-2.4,0-2.4,3.7,0,3.7C99.1,55.1,125.1,55,151,55c-0.6-0.8-1.2-1.5-1.8-2.3
			c-12.5,32.3-24.9,64.5-37.4,96.8c1.2,0,2.4,0,3.5,0C101.9,117.3,88.5,85.1,75,52.9C74.1,50.7,70.5,51.6,71.4,53.8z"/>
	</g>
</g>
</svg>
