<?xml version="1.0" encoding="utf-8"?>
<!-- Generator: Adobe Illustrator 18.1.0, SVG Export Plug-In . SVG Version: 6.00 Build 0)  -->
<!DOCTYPE svg PUBLIC "-//W3C//DTD SVG 1.1//EN" "http://www.w3.org/Graphics/SVG/1.1/DTD/svg11.dtd">
<svg version="1.1" id="Layer_1" xmlns="http://www.w3.org/2000/svg" xmlns:xlink="http://www.w3.org/1999/xlink" x="0px" y="0px"
	 width="40px" height="16px" viewBox="8.3 66.2 1193.9 461.5" enable-background="new 8.3 66.2 1193.9 461.5"
	 xml:space="preserve">
<polygon display="none" points="1203.6,562.8 1093.1,562.8 1074.9,562.8 993.4,562.8 977,562.8 910,562.8 895.5,562.8 841.1,562.8 
	826.6,562.8 777.6,562.8 765,562.8 719.6,562.8 705.1,562.8 661.6,562.8 648.9,562.8 605.4,562.8 592.7,562.8 549.2,562.8 
	534.7,562.8 485.8,562.8 473.1,562.8 418.7,562.8 404.2,562.8 335.3,562.8 320.8,562.8 237.5,562.8 219.3,562.8 108.8,562.8 
	88.8,562.8 0,562.8 0,749.5 1303.3,749.5 1303.3,562.8 1223.6,562.8 "/>
<line stroke="#DB5370" stroke-width="10" stroke-miterlimit="10" x1="605" y1="66.2" x2="605" y2="522"/>
<line stroke="#DB5370" stroke-width="10" stroke-miterlimit="10" x1="700.3" y1="213.5" x2="657.4" y2="522.5"/>
<line stroke="#DB5370" stroke-width="10" stroke-miterlimit="10" x1="764" y1="338.4" x2="711.1" y2="522.5"/>
<line stroke="#DB5370" stroke-width="10" stroke-miterlimit="10" x1="931.6" y1="134" x2="773.9" y2="523"/>
<line stroke="#DB5370" stroke-width="10" stroke-miterlimit="10" x1="940.3" y1="358.6" x2="840.8" y2="522.3"/>
<line stroke="#DB5370" stroke-width="10" stroke-miterlimit="10" x1="1079.7" y1="315.1" x2="914.2" y2="524.6"/>
<line stroke="#DB5370" stroke-width="10" stroke-miterlimit="10" x1="1197.5" y1="327.8" x2="1005.3" y2="523"/>
<line stroke="#DB5370" stroke-width="10" stroke-miterlimit="10" x1="1199" y1="435.4" x2="1092" y2="522"/>
<line stroke="#DB5370" stroke-width="10" stroke-miterlimit="10" x1="510.1" y1="212.5" x2="553" y2="521.5"/>
<line stroke="#DB5370" stroke-width="10" stroke-miterlimit="10" x1="446.4" y1="337.4" x2="499.4" y2="521.5"/>
<line stroke="#DB5370" stroke-width="10" stroke-miterlimit="10" x1="278.8" y1="133" x2="436.6" y2="522"/>
<line stroke="#DB5370" stroke-width="10" stroke-miterlimit="10" x1="270.2" y1="357.6" x2="369.6" y2="521.3"/>
<line stroke="#DB5370" stroke-width="10" stroke-miterlimit="10" x1="130.7" y1="314.1" x2="296.3" y2="523.6"/>
<line stroke="#DB5370" stroke-width="10" stroke-miterlimit="10" x1="12.9" y1="326.8" x2="205.1" y2="522"/>
<line stroke="#DB5370" stroke-width="10" stroke-miterlimit="10" x1="11.4" y1="434.4" x2="118.5" y2="521"/>
</svg>
