<?xml version="1.0" encoding="utf-8"?>
<!-- Generator: Adobe Illustrator 18.0.0, SVG Export Plug-In . SVG Version: 6.00 Build 0)  -->
<!DOCTYPE svg PUBLIC "-//W3C//DTD SVG 1.1//EN" "http://www.w3.org/Graphics/SVG/1.1/DTD/svg11.dtd">
<svg version="1.1" id="Layer_1" xmlns="http://www.w3.org/2000/svg" xmlns:xlink="http://www.w3.org/1999/xlink" x="0px" y="0px"
	 width="595.5px" height="595.5px" viewBox="235.2 -62 595.5 595.5" enable-background="new 235.2 -62 595.5 595.5"
	 xml:space="preserve">
<g id="svgGrid" display="none">
	<line display="inline" fill="none" stroke="#B35047" x1="324.6" y1="-5" x2="324.6" y2="469"/>
	<line display="inline" fill="none" stroke="#B35047" x1="354.2" y1="-5" x2="354.2" y2="469"/>
	<line display="inline" fill="none" stroke="#B35047" x1="383.9" y1="-5" x2="383.9" y2="469"/>
	<line display="inline" fill="none" stroke="#B35047" x1="413.5" y1="-5" x2="413.5" y2="469"/>
	<line display="inline" fill="none" stroke="#B35047" x1="443.1" y1="-5" x2="443.1" y2="469"/>
	<line display="inline" fill="none" stroke="#B35047" x1="472.7" y1="-5" x2="472.7" y2="469"/>
	<line display="inline" fill="none" stroke="#B35047" x1="502.4" y1="-5" x2="502.4" y2="469"/>
	<line display="inline" fill="none" stroke="#B35047" x1="532" y1="-5" x2="532" y2="469"/>
	<line display="inline" fill="none" stroke="#B35047" x1="561.6" y1="-5" x2="561.6" y2="469"/>
	<line display="inline" fill="none" stroke="#B35047" x1="591.3" y1="-5" x2="591.3" y2="469"/>
	<line display="inline" fill="none" stroke="#B35047" x1="620.9" y1="-5" x2="620.9" y2="469"/>
	<line display="inline" fill="none" stroke="#B35047" x1="650.5" y1="-5" x2="650.5" y2="469"/>
	<line display="inline" fill="none" stroke="#B35047" x1="680.1" y1="-5" x2="680.1" y2="469"/>
	<line display="inline" fill="none" stroke="#B35047" x1="709.8" y1="-5" x2="709.8" y2="469"/>
	<line display="inline" fill="none" stroke="#B35047" x1="739.4" y1="-5" x2="739.4" y2="469"/>
	<line display="inline" fill="none" stroke="#B35047" x1="295" y1="24.6" x2="769" y2="24.6"/>
	<line display="inline" fill="none" stroke="#B35047" x1="295" y1="54.2" x2="769" y2="54.2"/>
	<line display="inline" fill="none" stroke="#B35047" x1="295" y1="83.9" x2="769" y2="83.9"/>
	<line display="inline" fill="none" stroke="#B35047" x1="295" y1="113.5" x2="769" y2="113.5"/>
	<line display="inline" fill="none" stroke="#B35047" x1="295" y1="143.1" x2="769" y2="143.1"/>
	<line display="inline" fill="none" stroke="#B35047" x1="295" y1="172.7" x2="769" y2="172.7"/>
	<line display="inline" fill="none" stroke="#B35047" x1="295" y1="202.4" x2="769" y2="202.4"/>
	<line display="inline" fill="none" stroke="#B35047" x1="295" y1="232" x2="769" y2="232"/>
	<line display="inline" fill="none" stroke="#B35047" x1="295" y1="261.6" x2="769" y2="261.6"/>
	<line display="inline" fill="none" stroke="#B35047" x1="295" y1="291.3" x2="769" y2="291.3"/>
	<line display="inline" fill="none" stroke="#B35047" x1="295" y1="320.9" x2="769" y2="320.9"/>
	<line display="inline" fill="none" stroke="#B35047" x1="295" y1="350.5" x2="769" y2="350.5"/>
	<line display="inline" fill="none" stroke="#B35047" x1="295" y1="380.1" x2="769" y2="380.1"/>
	<line display="inline" fill="none" stroke="#B35047" x1="295" y1="409.8" x2="769" y2="409.8"/>
	<line display="inline" fill="none" stroke="#B35047" x1="295" y1="439.4" x2="769" y2="439.4"/>
	<rect x="295" y="-5" display="inline" fill="none" stroke="#B35047" width="474.1" height="474.1"/>
</g>
<path fill="#FFFFFF" d="M660,45.1H404c-35,0-63.6,28.6-63.6,63.6v255.9c0,35,28.6,63.6,63.6,63.6H660c35,0,63.6-28.6,63.6-63.6
	V108.7C723.6,73.7,695,45.1,660,45.1z M463.1,212.6H601c2.6,7.5,4.1,15.6,4.1,24c0,40.3-32.7,73-73,73c-40.3,0-73-32.7-73-73
	C459,228.2,460.4,220.1,463.1,212.6z M675.7,212.7v95.7v47.9c0,13.1-10.7,24-24,24H412.3c-13.1,0-24-10.7-24-24v-47.9v-95.7l0,0
	h37.5c-1.8,7.7-2.7,15.7-2.7,24c0,60,48.9,108.9,108.9,108.9s108.9-49,108.9-109c0-8.2-0.9-16.2-2.7-24L675.7,212.7L675.7,212.7z
	 M675.7,128.9c0,6.6-5.4,11.9-11.9,11.9h-24c-6.6,0-11.9-5.4-11.9-11.9v-24c0-6.6,5.4-11.9,11.9-11.9h24c6.6,0,11.9,5.4,11.9,11.9
	V128.9z"/>
<circle fill="none" stroke="#FFFFFF" stroke-width="14" stroke-miterlimit="10" cx="532.9" cy="235.7" r="290.7"/>
</svg>
