<?xml version="1.0" encoding="utf-8"?>
<!-- Generator: Adobe Illustrator 18.0.0, SVG Export Plug-In . SVG Version: 6.00 Build 0)  -->
<!DOCTYPE svg PUBLIC "-//W3C//DTD SVG 1.1//EN" "http://www.w3.org/Graphics/SVG/1.1/DTD/svg11.dtd">
<svg version="1.1" id="Layer_1" xmlns="http://www.w3.org/2000/svg" xmlns:xlink="http://www.w3.org/1999/xlink" x="0px" y="0px"
	 width="595.5px" height="595.5px" viewBox="235.2 -62 595.5 595.5" enable-background="new 235.2 -62 595.5 595.5"
	 xml:space="preserve">
<g id="svgGrid" display="none">
	<line display="inline" fill="none" stroke="#B35047" x1="324.6" y1="-5" x2="324.6" y2="469"/>
	<line display="inline" fill="none" stroke="#B35047" x1="354.2" y1="-5" x2="354.2" y2="469"/>
	<line display="inline" fill="none" stroke="#B35047" x1="383.9" y1="-5" x2="383.9" y2="469"/>
	<line display="inline" fill="none" stroke="#B35047" x1="413.5" y1="-5" x2="413.5" y2="469"/>
	<line display="inline" fill="none" stroke="#B35047" x1="443.1" y1="-5" x2="443.1" y2="469"/>
	<line display="inline" fill="none" stroke="#B35047" x1="472.7" y1="-5" x2="472.7" y2="469"/>
	<line display="inline" fill="none" stroke="#B35047" x1="502.4" y1="-5" x2="502.4" y2="469"/>
	<line display="inline" fill="none" stroke="#B35047" x1="532" y1="-5" x2="532" y2="469"/>
	<line display="inline" fill="none" stroke="#B35047" x1="561.6" y1="-5" x2="561.6" y2="469"/>
	<line display="inline" fill="none" stroke="#B35047" x1="591.3" y1="-5" x2="591.3" y2="469"/>
	<line display="inline" fill="none" stroke="#B35047" x1="620.9" y1="-5" x2="620.9" y2="469"/>
	<line display="inline" fill="none" stroke="#B35047" x1="650.5" y1="-5" x2="650.5" y2="469"/>
	<line display="inline" fill="none" stroke="#B35047" x1="680.1" y1="-5" x2="680.1" y2="469"/>
	<line display="inline" fill="none" stroke="#B35047" x1="709.8" y1="-5" x2="709.8" y2="469"/>
	<line display="inline" fill="none" stroke="#B35047" x1="739.4" y1="-5" x2="739.4" y2="469"/>
	<line display="inline" fill="none" stroke="#B35047" x1="295" y1="24.6" x2="769" y2="24.6"/>
	<line display="inline" fill="none" stroke="#B35047" x1="295" y1="54.2" x2="769" y2="54.2"/>
	<line display="inline" fill="none" stroke="#B35047" x1="295" y1="83.9" x2="769" y2="83.9"/>
	<line display="inline" fill="none" stroke="#B35047" x1="295" y1="113.5" x2="769" y2="113.5"/>
	<line display="inline" fill="none" stroke="#B35047" x1="295" y1="143.1" x2="769" y2="143.1"/>
	<line display="inline" fill="none" stroke="#B35047" x1="295" y1="172.7" x2="769" y2="172.7"/>
	<line display="inline" fill="none" stroke="#B35047" x1="295" y1="202.4" x2="769" y2="202.4"/>
	<line display="inline" fill="none" stroke="#B35047" x1="295" y1="232" x2="769" y2="232"/>
	<line display="inline" fill="none" stroke="#B35047" x1="295" y1="261.6" x2="769" y2="261.6"/>
	<line display="inline" fill="none" stroke="#B35047" x1="295" y1="291.3" x2="769" y2="291.3"/>
	<line display="inline" fill="none" stroke="#B35047" x1="295" y1="320.9" x2="769" y2="320.9"/>
	<line display="inline" fill="none" stroke="#B35047" x1="295" y1="350.5" x2="769" y2="350.5"/>
	<line display="inline" fill="none" stroke="#B35047" x1="295" y1="380.1" x2="769" y2="380.1"/>
	<line display="inline" fill="none" stroke="#B35047" x1="295" y1="409.8" x2="769" y2="409.8"/>
	<line display="inline" fill="none" stroke="#B35047" x1="295" y1="439.4" x2="769" y2="439.4"/>
	<rect x="295" y="-5" display="inline" fill="none" stroke="#B35047" width="474.1" height="474.1"/>
</g>
<path display="none" d="M660,45.1H404c-35,0-63.6,28.6-63.6,63.6v255.9c0,35,28.6,63.6,63.6,63.6H660c35,0,63.6-28.6,63.6-63.6
	V108.7C723.6,73.7,695,45.1,660,45.1z M463.1,212.6H601c2.6,7.5,4.1,15.6,4.1,24c0,40.3-32.7,73-73,73c-40.3,0-73-32.7-73-73
	C459,228.2,460.4,220.1,463.1,212.6z M675.7,212.7v95.7v47.9c0,13.1-10.7,24-24,24H412.3c-13.1,0-24-10.7-24-24v-47.9v-95.7l0,0
	h37.5c-1.8,7.7-2.7,15.7-2.7,24c0,60,48.9,108.9,108.9,108.9s108.9-49,108.9-109c0-8.2-0.9-16.2-2.7-24L675.7,212.7L675.7,212.7z
	 M675.7,128.9c0,6.6-5.4,11.9-11.9,11.9h-24c-6.6,0-11.9-5.4-11.9-11.9v-24c0-6.6,5.4-11.9,11.9-11.9h24c6.6,0,11.9,5.4,11.9,11.9
	V128.9z"/>
<circle fill="none" stroke="#FFFFFF" stroke-width="14" stroke-miterlimit="10" cx="532.9" cy="235.7" r="290.7"/>
<path display="none" d="M734.8,115.1c-14.8,6.6-30.8,11-47.6,13.1c17.1-10.3,30.3-26.5,36.4-45.8c-16,9.5-33.7,16.4-52.6,20.1
	c-15.1-16.1-36.7-26.1-60.5-26.1c-45.7,0-82.8,37-82.8,82.8c0,6.5,0.7,12.8,2.1,18.9c-68.8-3.4-129.9-36.4-170.7-86.6
	c-7.1,12.2-11.2,26.5-11.2,41.7c0,28.7,14.6,54.1,36.9,69c-13.6-0.5-26.4-4.2-37.5-10.4c0,0.4,0,0.6,0,1c0,40.1,28.5,73.6,66.5,81.2
	c-6.9,1.9-14.3,2.9-21.9,2.9c-5.4,0-10.6-0.6-15.6-1.5c10.6,32.9,41.1,56.9,77.4,57.5c-28.3,22.2-64.1,35.5-102.9,35.5
	c-6.7,0-13.2-0.4-19.7-1.2c36.7,23.5,80.2,37.2,126.9,37.2c152.3,0,235.6-126.2,235.6-235.6c0-3.6-0.1-7.1-0.3-10.7
	C709.6,146.4,723.7,131.7,734.8,115.1z"/>
<path display="none" d="M532.9-2.3c-130.9,0-237,106.1-237,237s106.1,237,237,237s237-106.1,237-237S663.9-2.3,532.9-2.3z
	 M555.9,314.5c-21.6-1.7-30.6-12.3-47.5-22.6c-9.3,48.7-20.6,95.4-54.3,119.7C443.8,338,469.3,282.7,481.3,224
	c-20.3-34.2,2.4-102.8,45.2-85.8c52.6,20.8-45.6,126.9,20.4,140.1c68.8,13.8,96.9-119.4,54.3-162.7c-61.7-62.6-179.4-1.4-165,88.1
	c3.5,21.9,26.1,28.5,9.1,58.8c-39.4-8.7-51.2-39.9-49.7-81.4c2.4-67.9,61-115.5,119.7-122c74.3-8.3,144.1,27.3,153.7,97.1
	C679.8,235.1,635.3,320.6,555.9,314.5z"/>
<path fill="#FFFFFF" d="M569.9,475.5h-88.8v-237h-59.3v-81.7h59.3l-0.1-48.1C481,42,499,1.4,577.6,1.4h65.4v81.7h-40.8
	c-30.6,0-32,11.4-32,32.7l-0.1,40.9h73.4l-8.7,81.7H570L569.9,475.5z"/>
</svg>
