<?xml version="1.0" encoding="utf-8"?>
<!-- Generator: Adobe Illustrator 17.1.0, SVG Export Plug-In . SVG Version: 6.00 Build 0)  -->
<!DOCTYPE svg PUBLIC "-//W3C//DTD SVG 1.1//EN" "http://www.w3.org/Graphics/SVG/1.1/DTD/svg11.dtd">
<svg version="1.1" id="Layer_1" xmlns="http://www.w3.org/2000/svg" xmlns:xlink="http://www.w3.org/1999/xlink" x="0px" y="0px"
	 viewBox="0 0 544.7 135.5" enable-background="new 0 0 544.7 135.5" xml:space="preserve">
<g display="none">
	<g display="inline">
		<polygon fill="#FFFFFF" points="33,0.9 16.3,21 60.2,58.9 100.6,21.1 83.5,0.9 		"/>
		<g>
			<path d="M32.5,0.4c-5.6,6.7-11.1,13.4-16.7,20.2c-0.2,0.3-0.3,0.7,0,1C29.9,33.7,43.9,45.8,58,58c0.6,0.5,1.1,1,1.7,1.5
				c0.3,0.3,0.7,0.3,1,0c13.2-12.4,26.5-24.8,39.7-37.2c0.2-0.2,0.5-0.4,0.7-0.7c0.3-0.3,0.2-0.7,0-1C95.4,13.9,89.7,7.2,84.1,0.5
				c-0.4-0.5-1.2-0.3-1.8-0.3c-1.6,0-3.3,0-4.9,0c-5.6,0-11.2,0-16.8,0c-9.2,0-18.3,0-27.5,0c-0.9,0-0.9,1.4,0,1.4
				c8.5,0,17.1,0,25.6,0c5.8,0,11.6,0,17.4,0c1.9,0,3.7,0,5.6,0c0.5,0,1,0,1.4,0c0.7,0,0.2,0.1,0-0.2c5.7,6.7,11.4,13.5,17.1,20.2
				c0-0.3,0-0.7,0-1C86.9,33,73.6,45.4,60.4,57.8c-0.2,0.2-0.5,0.4-0.7,0.7c0.3,0,0.7,0,1,0C46.7,46.3,32.6,34.2,18.6,22
				c-0.6-0.5-1.1-1-1.7-1.5c0,0.3,0,0.7,0,1C22.4,14.8,28,8.1,33.5,1.4C34.1,0.7,33.1-0.3,32.5,0.4z"/>
		</g>
	</g>
	<g display="inline">
		<line fill="none" x1="16.3" y1="21" x2="99.6" y2="21"/>
		<g>
			<path d="M16.3,21.8c18.5,0,37,0,55.5,0c9.2,0,18.5,0,27.7,0c0.9,0,0.9-1.4,0-1.4c-18.5,0-37,0-55.5,0c-9.2,0-18.5,0-27.7,0
				C15.4,20.3,15.4,21.8,16.3,21.8L16.3,21.8z"/>
		</g>
	</g>
	<g display="inline">
		<polyline fill="#FFFFFF" points="33,2 44.7,21 59.5,0.9 74.9,20.6 83,2 		"/>
		<g>
			<path d="M32.4,2.4c3.9,6.3,7.8,12.7,11.7,19c0.3,0.5,0.9,0.4,1.2,0C50.2,14.7,55.2,8,60.1,1.2c-0.4,0-0.8,0.1-1.1,0.1
				C64.1,8,69.2,14.5,74.3,21.1c0.3,0.3,1,0.3,1.1-0.1c2.7-6.2,5.4-12.4,8.1-18.6c0.4-0.8-0.9-1.6-1.2-0.7
				c-2.7,6.2-5.4,12.4-8.1,18.6c0.4,0,0.8-0.1,1.1-0.1C70.2,13.5,65.1,6.9,60,0.4c-0.3-0.4-0.9-0.2-1.1,0.1C53.9,7.2,49,14,44,20.7
				c0.4,0,0.8,0,1.2,0c-3.9-6.3-7.8-12.7-11.7-19C33.1,0.9,31.9,1.6,32.4,2.4L32.4,2.4z"/>
		</g>
	</g>
	<g display="inline">
		<polygon fill="#FFFFFF" points="44.3,21 60.2,58.9 74.9,21 		"/>
		<g>
			<path d="M43.6,21.2c5.3,12.6,10.6,25.3,15.8,37.9c0.3,0.7,1.1,0.7,1.4,0c4.9-12.7,9.8-25.3,14.7-38c0.2-0.4-0.3-0.9-0.7-0.9
				c-10.2,0-20.3,0.1-30.5,0.1c-0.9,0-0.9,1.4,0,1.4c10.2,0,20.3-0.1,30.5-0.1c-0.2-0.3-0.5-0.6-0.7-0.9c-4.9,12.7-9.8,25.3-14.7,38
				c0.5,0,0.9,0,1.4,0C55.6,46.1,50.3,33.5,45,20.9C44.7,20,43.3,20.4,43.6,21.2z"/>
		</g>
	</g>
	<g display="inline">
		<polygon fill="#FFFFFF" points="25.7,55.1 16.5,64.3 26.2,74 35.1,65.2 		"/>
		<g>
			<path d="M25.2,54.6c-3.1,3.1-6.1,6.1-9.2,9.2c-0.3,0.3-0.3,0.7,0,1c3.2,3.2,6.5,6.5,9.7,9.7c0.3,0.3,0.7,0.3,1,0
				c2.9-2.9,5.9-5.9,8.8-8.8c0.3-0.3,0.3-0.7,0-1c-3.1-3.4-6.3-6.7-9.4-10.1c-0.6-0.7-1.6,0.3-1,1c3.1,3.4,6.3,6.7,9.4,10.1
				c0-0.3,0-0.7,0-1c-2.9,2.9-5.9,5.9-8.8,8.8c0.3,0,0.7,0,1,0c-3.2-3.2-6.5-6.5-9.7-9.7c0,0.3,0,0.7,0,1c3.1-3.1,6.1-6.1,9.2-9.2
				C26.8,55,25.8,53.9,25.2,54.6z"/>
		</g>
	</g>
	<g display="inline">
		<circle fill="#FFFFFF" cx="34.8" cy="56.3" r="5.9"/>
		<g>
			<path d="M40,56.3c-0.3,6.7-10.1,6.7-10.4,0c-0.1-2.9,2.5-5.1,5.2-5.2C37.7,51,39.9,53.6,40,56.3c0,0.9,1.5,0.9,1.4,0
				c-0.2-3.7-2.9-6.5-6.6-6.6c-3.7-0.2-6.5,3.1-6.6,6.6C28,60,31.3,62.8,34.8,63c3.7,0.2,6.5-3.1,6.6-6.6
				C41.5,55.4,40.1,55.4,40,56.3z"/>
		</g>
	</g>
	<g display="inline">
		<path fill="#FFFFFF" d="M16.1,65.1c-3.6,0.5-13.8,5.1-15.3,11.3c0,0,9.9,1.3,13,12.1c0,0,11.7-3.7,12-13.6"/>
		<g>
			<path d="M15.9,64.4c-3.1,0.5-6.1,2.1-8.8,3.7c-3,1.9-6,4.5-7,8.1C0,76.6,0.4,77,0.8,77.1c1.1,0.1,3.4,1,4.7,1.7
				c3.8,2.1,6.4,5.7,7.7,9.8c0.1,0.4,0.5,0.6,0.9,0.5c6.4-2,12.2-7.3,12.5-14.3c0-0.9-1.4-0.9-1.4,0c-0.3,6.3-5.7,11.1-11.4,12.9
				c0.3,0.2,0.6,0.3,0.9,0.5c-1.3-4.3-3.9-7.9-7.7-10.3c-1.7-1.1-4-2.1-6-2.3c0.2,0.3,0.5,0.6,0.7,0.9c0.9-3.4,3.9-5.7,6.7-7.5
				c2.4-1.5,5.2-2.9,8-3.3C17.2,65.6,16.8,64.2,15.9,64.4L15.9,64.4z"/>
		</g>
	</g>
	<g display="inline">
		<path fill="#FFFFFF" d="M13.9,88.4c-8.5-1.4-13-12.1-13-12.1s6,2,7.9,3.9c1.9,1.9,4.9,5.8,5,7C13.9,88.4,13.9,88.4,13.9,88.4z"/>
		<g>
			<path d="M14.1,87.7C8.2,86.6,3.7,81.3,1.5,76c-0.3,0.4-0.5,0.7-0.8,1.1c2.5,0.9,5.2,1.8,7.3,3.5c2.2,1.8,4.8,5,5.2,7.9
				c0.1,0.9,1.6,0.9,1.4,0c-0.4-3.3-2.8-6-5.1-8.4c-2.1-2.2-5.6-3.4-8.5-4.4c-0.7-0.2-1,0.5-0.8,1.1C3,83.2,8.1,88.1,13.7,89.1
				C14.6,89.3,15,87.9,14.1,87.7z"/>
		</g>
	</g>
	<g display="inline">
		<polygon fill="#FFFFFF" points="26.2,74 93.9,134.6 102.2,125.1 35.1,65.2 		"/>
		<g>
			<path d="M25.7,74.6c13.4,12,26.8,24,40.2,36c9.1,8.2,18.3,16.4,27.4,24.6c0.3,0.2,0.8,0.3,1,0c2.8-3.2,5.5-6.4,8.3-9.6
				c0.2-0.3,0.3-0.7,0-1c-13.5-12-26.9-24-40.4-36c-8.9-7.9-17.8-15.9-26.8-23.8c-0.3-0.3-0.7-0.3-1,0c-2.9,2.9-5.9,5.9-8.8,8.8
				c-0.7,0.7,0.4,1.7,1,1c2.9-2.9,5.9-5.9,8.8-8.8c-0.3,0-0.7,0-1,0c13.5,12,26.9,24,40.4,36c8.9,7.9,17.8,15.9,26.8,23.8
				c0-0.3,0-0.7,0-1c-2.8,3.2-5.5,6.4-8.3,9.6c0.3,0,0.7,0,1,0c-13.4-12-26.8-24-40.2-36C45,89.9,35.9,81.7,26.7,73.5
				C26,72.9,25,73.9,25.7,74.6z"/>
		</g>
	</g>
	<g display="inline">
		<path fill="#FFFFFF" d="M103,51.8l-64.8,69.7c0,0,2.3,4.9,4.5,4.8C44.9,126.2,104.9,74.2,103,51.8z"/>
		<g>
			<path d="M102.5,51.3c-12,12.9-24,25.8-36,38.8c-9.6,10.3-19.2,20.6-28.7,30.9c-0.2,0.3-0.3,0.6-0.1,0.9c0.8,1.8,2.5,5,4.8,5.2
				c0.8,0,1.4-0.4,2-0.9c2.8-2,5.4-4.3,8-6.6c9.5-8.3,18.6-17.2,27.1-26.6c6.3-7,12.4-14.3,17.5-22.3c3.4-5.4,7.2-12.2,6.7-18.8
				c-0.1-0.9-1.5-0.9-1.4,0c0.3,4.6-1.6,9.1-3.6,13c-2.8,5.6-6.5,10.7-10.4,15.6c-8.5,10.8-18.1,20.7-28,30
				c-4.4,4.2-8.9,8.2-13.6,12.1c-1.2,0.9-2.3,1.9-3.6,2.7c-0.1,0.1-0.3,0.2-0.4,0.3c-0.2,0.1,0,0,0,0c0.2-0.1-0.5-0.1-0.7-0.3
				c-1.4-0.8-2.4-2.7-3-4.2c0,0.3-0.1,0.6-0.1,0.9c12-12.9,24-25.8,36-38.8c9.6-10.3,19.2-20.6,28.7-30.9
				C104.1,51.6,103.1,50.6,102.5,51.3z"/>
		</g>
	</g>
	<g display="inline">
		<path fill="#FFFFFF" d="M103,51.8l-64.8,69.6c0,0-5.1-1.9-5.1-4.2C33,115,80.5,51.5,103,51.8z"/>
		<g>
			<path d="M102.5,51.3c-12,12.9-24,25.8-36.1,38.7c-7.5,8-14.9,16.1-22.4,24.1c-1.9,2-3.8,4.1-5.7,6.1c-0.2,0.2-0.3,0.4-0.5,0.6
				c-0.4,0.4,1,0.1,0.1-0.2c-1.4-0.6-3-1.4-3.9-2.7c-0.3-0.5-0.2-0.4,0-0.8c1.4-2.6,3.4-5.1,5.1-7.5c3.3-4.5,6.8-8.8,10.3-13.1
				c8.8-10.6,18.1-20.9,28.4-30c4.2-3.7,8.7-7.2,13.5-10c3.5-2,7.5-3.9,11.6-3.9c0.9,0,0.9-1.4,0-1.4c-4.4,0-8.6,1.9-12.3,4.1
				c-5.2,3-9.9,6.8-14.4,10.8c-10.3,9.1-19.6,19.4-28.3,30c-4.5,5.5-8.9,11-13,16.8c-0.9,1.2-1.9,2.5-2.5,3.9
				c-1.1,2.7,3.7,4.8,5.5,5.5c0.2,0.1,0.5,0,0.7-0.2c12-12.9,24-25.8,36.1-38.7c9.6-10.3,19.2-20.6,28.8-30.9
				C104.1,51.6,103.1,50.6,102.5,51.3z"/>
		</g>
	</g>
	<g display="inline">
		<polygon fill="#FFFFFF" points="38.2,121.9 40.3,125.5 30.4,134.3 25.8,130.1 33.7,120.9 34.8,119.7 		"/>
		<g>
			<path d="M37.6,122.3c0.7,1.2,1.4,2.4,2.2,3.6c0-0.3,0.1-0.6,0.1-0.9c-3.3,2.9-6.6,5.9-10,8.8c0.3,0,0.7,0,1,0
				c-1.5-1.4-3.1-2.8-4.6-4.2c0,0.3,0,0.7,0,1c3-3.5,5.9-7.1,9.1-10.4c-0.3,0-0.6,0.1-0.9,0.1c1.1,0.8,2.2,1.5,3.3,2.3
				c0.8,0.5,1.5-0.7,0.7-1.2c-1.1-0.8-2.2-1.5-3.3-2.3c-0.3-0.2-0.7-0.1-0.9,0.1c-3.2,3.4-6.1,6.9-9.1,10.4c-0.2,0.3-0.3,0.7,0,1
				c1.5,1.4,3.1,2.8,4.6,4.2c0.3,0.3,0.7,0.3,1,0c3.3-2.9,6.6-5.9,10-8.8c0.2-0.2,0.3-0.6,0.1-0.9c-0.7-1.2-1.4-2.4-2.2-3.6
				C38.3,120.8,37.1,121.5,37.6,122.3z"/>
		</g>
	</g>
</g>
<g>
	<g>
		<polygon fill="#FFFFFF" stroke="#231F20" stroke-width="0.25" stroke-miterlimit="10" points="33,0.9 16.3,21 60.2,58.9 
			100.6,21.1 83.5,0.9 		"/>
		<g>
			<path stroke="#231F20" stroke-width="0.25" stroke-miterlimit="10" d="M32.5,0.4c-5.6,6.7-11.1,13.4-16.7,20.2
				c-0.2,0.3-0.3,0.7,0,1C29.9,33.7,43.9,45.8,58,58c0.6,0.5,1.1,1,1.7,1.5c0.3,0.3,0.7,0.3,1,0c13.2-12.4,26.5-24.8,39.7-37.2
				c0.2-0.2,0.5-0.4,0.7-0.7c0.3-0.3,0.2-0.7,0-1C95.4,13.9,89.7,7.2,84.1,0.5c-0.4-0.5-1.2-0.3-1.8-0.3c-1.6,0-3.3,0-4.9,0
				c-5.6,0-11.2,0-16.8,0c-9.2,0-18.3,0-27.5,0c-0.9,0-0.9,1.4,0,1.4c8.5,0,17.1,0,25.6,0c5.8,0,11.6,0,17.4,0c1.9,0,3.7,0,5.6,0
				c0.5,0,1,0,1.4,0c0.7,0,0.2,0.1,0-0.2c5.7,6.7,11.4,13.5,17.1,20.2c0-0.3,0-0.7,0-1C86.9,33,73.6,45.4,60.4,57.8
				c-0.2,0.2-0.5,0.4-0.7,0.7c0.3,0,0.7,0,1,0C46.7,46.3,32.6,34.2,18.6,22c-0.6-0.5-1.1-1-1.7-1.5c0,0.3,0,0.7,0,1
				C22.4,14.8,28,8.1,33.5,1.4C34.1,0.7,33.1-0.3,32.5,0.4z"/>
		</g>
	</g>
	<g>
		<line fill="none" stroke="#231F20" stroke-width="0.25" stroke-miterlimit="10" x1="16.3" y1="21" x2="99.6" y2="21"/>
		<g>
			<path stroke="#231F20" stroke-width="0.25" stroke-miterlimit="10" d="M16.3,21.8c18.5,0,37,0,55.5,0c9.2,0,18.5,0,27.7,0
				c0.9,0,0.9-1.4,0-1.4c-18.5,0-37,0-55.5,0c-9.2,0-18.5,0-27.7,0C15.4,20.3,15.4,21.8,16.3,21.8L16.3,21.8z"/>
		</g>
	</g>
	<g>
		<polyline fill="#FFFFFF" stroke="#231F20" stroke-width="0.25" stroke-miterlimit="10" points="33,2 44.7,21 59.5,0.9 74.9,20.6 
			83,2 		"/>
		<g>
			<path stroke="#231F20" stroke-width="0.25" stroke-miterlimit="10" d="M32.4,2.4c3.9,6.3,7.8,12.7,11.7,19c0.3,0.5,0.9,0.4,1.2,0
				C50.2,14.7,55.2,8,60.1,1.2c-0.4,0-0.8,0.1-1.1,0.1C64.1,8,69.2,14.5,74.3,21.1c0.3,0.3,1,0.3,1.1-0.1c2.7-6.2,5.4-12.4,8.1-18.6
				c0.4-0.8-0.9-1.6-1.2-0.7c-2.7,6.2-5.4,12.4-8.1,18.6c0.4,0,0.8-0.1,1.1-0.1C70.2,13.5,65.1,6.9,60,0.4c-0.3-0.4-0.9-0.2-1.1,0.1
				C53.9,7.2,49,14,44,20.7c0.4,0,0.8,0,1.2,0c-3.9-6.3-7.8-12.7-11.7-19C33.1,0.9,31.9,1.6,32.4,2.4L32.4,2.4z"/>
		</g>
	</g>
	<g>
		<polygon fill="#FFFFFF" stroke="#231F20" stroke-width="0.25" stroke-miterlimit="10" points="44.3,21 60.2,58.9 74.9,21 		"/>
		<g>
			<path stroke="#231F20" stroke-width="0.25" stroke-miterlimit="10" d="M43.6,21.2c5.3,12.6,10.6,25.3,15.8,37.9
				c0.3,0.7,1.1,0.7,1.4,0c4.9-12.7,9.8-25.3,14.7-38c0.2-0.4-0.3-0.9-0.7-0.9c-10.2,0-20.3,0.1-30.5,0.1c-0.9,0-0.9,1.4,0,1.4
				c10.2,0,20.3-0.1,30.5-0.1c-0.2-0.3-0.5-0.6-0.7-0.9c-4.9,12.7-9.8,25.3-14.7,38c0.5,0,0.9,0,1.4,0C55.6,46.1,50.3,33.5,45,20.9
				C44.7,20,43.3,20.4,43.6,21.2z"/>
		</g>
	</g>
	<g>
		<polygon fill="#FFFFFF" stroke="#231F20" stroke-width="0.25" stroke-miterlimit="10" points="25.7,55.1 16.5,64.3 26.2,74 
			35.1,65.2 		"/>
		<g>
			<path stroke="#231F20" stroke-width="0.25" stroke-miterlimit="10" d="M25.2,54.6c-3.1,3.1-6.1,6.1-9.2,9.2c-0.3,0.3-0.3,0.7,0,1
				c3.2,3.2,6.5,6.5,9.7,9.7c0.3,0.3,0.7,0.3,1,0c2.9-2.9,5.9-5.9,8.8-8.8c0.3-0.3,0.3-0.7,0-1c-3.1-3.4-6.3-6.7-9.4-10.1
				c-0.6-0.7-1.6,0.3-1,1c3.1,3.4,6.3,6.7,9.4,10.1c0-0.3,0-0.7,0-1c-2.9,2.9-5.9,5.9-8.8,8.8c0.3,0,0.7,0,1,0
				c-3.2-3.2-6.5-6.5-9.7-9.7c0,0.3,0,0.7,0,1c3.1-3.1,6.1-6.1,9.2-9.2C26.8,55,25.8,53.9,25.2,54.6z"/>
		</g>
	</g>
	<g>
		<circle fill="#FFFFFF" stroke="#231F20" stroke-width="0.25" stroke-miterlimit="10" cx="34.8" cy="56.3" r="5.9"/>
		<g>
			<path stroke="#231F20" stroke-width="0.25" stroke-miterlimit="10" d="M40,56.3c-0.3,6.7-10.1,6.7-10.4,0
				c-0.1-2.9,2.5-5.1,5.2-5.2C37.7,51,39.9,53.6,40,56.3c0,0.9,1.5,0.9,1.4,0c-0.2-3.7-2.9-6.5-6.6-6.6c-3.7-0.2-6.5,3.1-6.6,6.6
				C28,60,31.3,62.8,34.8,63c3.7,0.2,6.5-3.1,6.6-6.6C41.5,55.4,40.1,55.4,40,56.3z"/>
		</g>
	</g>
	<g>
		<path fill="#FFFFFF" stroke="#231F20" stroke-width="0.25" stroke-miterlimit="10" d="M16.1,65.1c-3.6,0.5-13.8,5.1-15.3,11.3
			c0,0,9.9,1.3,13,12.1c0,0,11.7-3.7,12-13.6"/>
		<g>
			<path stroke="#231F20" stroke-width="0.25" stroke-miterlimit="10" d="M15.9,64.4c-3.1,0.5-6.1,2.1-8.8,3.7c-3,1.9-6,4.5-7,8.1
				C0,76.6,0.4,77,0.8,77.1c1.1,0.1,3.4,1,4.7,1.7c3.8,2.1,6.4,5.7,7.7,9.8c0.1,0.4,0.5,0.6,0.9,0.5c6.4-2,12.2-7.3,12.5-14.3
				c0-0.9-1.4-0.9-1.4,0c-0.3,6.3-5.7,11.1-11.4,12.9c0.3,0.2,0.6,0.3,0.9,0.5c-1.3-4.3-3.9-7.9-7.7-10.3c-1.7-1.1-4-2.1-6-2.3
				c0.2,0.3,0.5,0.6,0.7,0.9c0.9-3.4,3.9-5.7,6.7-7.5c2.4-1.5,5.2-2.9,8-3.3C17.2,65.6,16.8,64.2,15.9,64.4L15.9,64.4z"/>
		</g>
	</g>
	<g>
		<path fill="#FFFFFF" stroke="#231F20" stroke-width="0.25" stroke-miterlimit="10" d="M13.9,88.4c-8.5-1.4-13-12.1-13-12.1
			s6,2,7.9,3.9c1.9,1.9,4.9,5.8,5,7C13.9,88.4,13.9,88.4,13.9,88.4z"/>
		<g>
			<path stroke="#231F20" stroke-width="0.25" stroke-miterlimit="10" d="M14.1,87.7C8.2,86.6,3.7,81.3,1.5,76
				c-0.3,0.4-0.5,0.7-0.8,1.1c2.5,0.9,5.2,1.8,7.3,3.5c2.2,1.8,4.8,5,5.2,7.9c0.1,0.9,1.6,0.9,1.4,0c-0.4-3.3-2.8-6-5.1-8.4
				c-2.1-2.2-5.6-3.4-8.5-4.4c-0.7-0.2-1,0.5-0.8,1.1C3,83.2,8.1,88.1,13.7,89.1C14.6,89.3,15,87.9,14.1,87.7z"/>
		</g>
	</g>
	<g>
		<polygon fill="#FFFFFF" stroke="#231F20" stroke-width="0.25" stroke-miterlimit="10" points="26.2,74 93.9,134.6 102.2,125.1 
			35.1,65.2 		"/>
		<g>
			<path stroke="#231F20" stroke-width="0.25" stroke-miterlimit="10" d="M25.7,74.6c13.4,12,26.8,24,40.2,36
				c9.1,8.2,18.3,16.4,27.4,24.6c0.3,0.2,0.8,0.3,1,0c2.8-3.2,5.5-6.4,8.3-9.6c0.2-0.3,0.3-0.7,0-1c-13.5-12-26.9-24-40.4-36
				c-8.9-7.9-17.8-15.9-26.8-23.8c-0.3-0.3-0.7-0.3-1,0c-2.9,2.9-5.9,5.9-8.8,8.8c-0.7,0.7,0.4,1.7,1,1c2.9-2.9,5.9-5.9,8.8-8.8
				c-0.3,0-0.7,0-1,0c13.5,12,26.9,24,40.4,36c8.9,7.9,17.8,15.9,26.8,23.8c0-0.3,0-0.7,0-1c-2.8,3.2-5.5,6.4-8.3,9.6
				c0.3,0,0.7,0,1,0c-13.4-12-26.8-24-40.2-36C45,89.9,35.9,81.7,26.7,73.5C26,72.9,25,73.9,25.7,74.6z"/>
		</g>
	</g>
	<g>
		<path fill="#FFFFFF" stroke="#231F20" stroke-width="0.25" stroke-miterlimit="10" d="M103,51.8l-64.8,69.7c0,0,2.3,4.9,4.5,4.8
			C44.9,126.2,104.9,74.2,103,51.8z"/>
		<g>
			<path stroke="#231F20" stroke-width="0.25" stroke-miterlimit="10" d="M102.5,51.3c-12,12.9-24,25.8-36,38.8
				c-9.6,10.3-19.2,20.6-28.7,30.9c-0.2,0.3-0.3,0.6-0.1,0.9c0.8,1.8,2.5,5,4.8,5.2c0.8,0,1.4-0.4,2-0.9c2.8-2,5.4-4.3,8-6.6
				c9.5-8.3,18.6-17.2,27.1-26.6c6.3-7,12.4-14.3,17.5-22.3c3.4-5.4,7.2-12.2,6.7-18.8c-0.1-0.9-1.5-0.9-1.4,0
				c0.3,4.6-1.6,9.1-3.6,13c-2.8,5.6-6.5,10.7-10.4,15.6c-8.5,10.8-18.1,20.7-28,30c-4.4,4.2-8.9,8.2-13.6,12.1
				c-1.2,0.9-2.3,1.9-3.6,2.7c-0.1,0.1-0.3,0.2-0.4,0.3c-0.2,0.1,0,0,0,0c0.2-0.1-0.5-0.1-0.7-0.3c-1.4-0.8-2.4-2.7-3-4.2
				c0,0.3-0.1,0.6-0.1,0.9c12-12.9,24-25.8,36-38.8c9.6-10.3,19.2-20.6,28.7-30.9C104.1,51.6,103.1,50.6,102.5,51.3z"/>
		</g>
	</g>
	<g>
		<path fill="#FFFFFF" stroke="#231F20" stroke-width="0.25" stroke-miterlimit="10" d="M103,51.8l-64.8,69.6c0,0-5.1-1.9-5.1-4.2
			C33,115,80.5,51.5,103,51.8z"/>
		<g>
			<path stroke="#231F20" stroke-width="0.25" stroke-miterlimit="10" d="M102.5,51.3c-12,12.9-24,25.8-36.1,38.7
				c-7.5,8-14.9,16.1-22.4,24.1c-1.9,2-3.8,4.1-5.7,6.1c-0.2,0.2-0.3,0.4-0.5,0.6c-0.4,0.4,1,0.1,0.1-0.2c-1.4-0.6-3-1.4-3.9-2.7
				c-0.3-0.5-0.2-0.4,0-0.8c1.4-2.6,3.4-5.1,5.1-7.5c3.3-4.5,6.8-8.8,10.3-13.1c8.8-10.6,18.1-20.9,28.4-30c4.2-3.7,8.7-7.2,13.5-10
				c3.5-2,7.5-3.9,11.6-3.9c0.9,0,0.9-1.4,0-1.4c-4.4,0-8.6,1.9-12.3,4.1c-5.2,3-9.9,6.8-14.4,10.8c-10.3,9.1-19.6,19.4-28.3,30
				c-4.5,5.5-8.9,11-13,16.8c-0.9,1.2-1.9,2.5-2.5,3.9c-1.1,2.7,3.7,4.8,5.5,5.5c0.2,0.1,0.5,0,0.7-0.2c12-12.9,24-25.8,36.1-38.7
				c9.6-10.3,19.2-20.6,28.8-30.9C104.1,51.6,103.1,50.6,102.5,51.3z"/>
		</g>
	</g>
	<g>
		<polygon fill="#FFFFFF" stroke="#231F20" stroke-width="0.25" stroke-miterlimit="10" points="38.2,121.9 40.3,125.5 30.4,134.3 
			25.8,130.1 33.7,120.9 34.8,119.7 		"/>
		<g>
			<path stroke="#231F20" stroke-width="0.25" stroke-miterlimit="10" d="M37.6,122.3c0.7,1.2,1.4,2.4,2.2,3.6
				c0-0.3,0.1-0.6,0.1-0.9c-3.3,2.9-6.6,5.9-10,8.8c0.3,0,0.7,0,1,0c-1.5-1.4-3.1-2.8-4.6-4.2c0,0.3,0,0.7,0,1
				c3-3.5,5.9-7.1,9.1-10.4c-0.3,0-0.6,0.1-0.9,0.1c1.1,0.8,2.2,1.5,3.3,2.3c0.8,0.5,1.5-0.7,0.7-1.2c-1.1-0.8-2.2-1.5-3.3-2.3
				c-0.3-0.2-0.7-0.1-0.9,0.1c-3.2,3.4-6.1,6.9-9.1,10.4c-0.2,0.3-0.3,0.7,0,1c1.5,1.4,3.1,2.8,4.6,4.2c0.3,0.3,0.7,0.3,1,0
				c3.3-2.9,6.6-5.9,10-8.8c0.2-0.2,0.3-0.6,0.1-0.9c-0.7-1.2-1.4-2.4-2.2-3.6C38.3,120.8,37.1,121.5,37.6,122.3z"/>
		</g>
	</g>
</g>
<g enable-background="new    ">
	<path d="M133.5,94.9h5.7V57.9h-5.7v-2.2h28.5v9.2h-2.4v-7h-17.7v17.6h14.4v2.2h-14.4v17.1h6.2V97h-14.4V94.9z"/>
	<path d="M168.3,94.9h3.7V57.9h-3.7v-2.2h13.5c8.7,0,14.1,4.8,14.1,11.6c0,6-4,10-10,11.4l10.3,16.2h5V97h-6.8l-11.2-18
		c-0.7,0.1-1.6,0.1-2.4,0.1c-2.3,0-4.5,0-6.2-0.1v15.7h5.8V97h-12.1V94.9z M193.3,67.3c0-5.8-4.5-9.4-11.7-9.4h-7v19
		c1.9,0.1,4.1,0.1,6.3,0.1C188.2,77,193.3,73.7,193.3,67.3z"/>
	<path d="M202.9,76.4c0-11.9,8.9-21.4,20.7-21.4c11.8,0,20.6,9.4,20.6,21.4c0,11.9-8.9,21.4-20.7,21.4
		C211.7,97.7,202.9,88.3,202.9,76.4z M241.6,76.4c0-10.6-7.5-19.1-18-19.1c-10.5,0-18,8.4-18,19.1c0,10.6,7.5,19.1,18,19.1
		C234.1,95.5,241.6,87.1,241.6,76.4z"/>
	<path d="M248.4,89.6c0-1.8,1-2.9,2.3-2.9c1.1,0,2.1,0.9,2.1,2.1c0,1-0.6,1.9-1.4,2.4c1.3,2.2,4.9,4.2,9.9,4.2
		c6.3,0,10.2-3.6,10.2-8.7c0-5.2-4.8-7.5-9.9-9.5c-6.2-2.4-11.7-5-11.7-11.7c0-6,5-10.4,12-10.4c6.3,0,11.4,3.9,11.4,7.7
		c0,1.6-1.1,2.6-2.3,2.6s-2.2-0.9-2.2-2.2c0-0.9,0.5-1.7,1.2-2.3c-1.1-2-4.8-3.6-8.3-3.6c-5.5,0-9.4,3.4-9.4,7.9
		c0,5.3,4.7,7.3,10.2,9.5c6,2.4,11.4,5.1,11.4,11.7c0,6.8-5.5,11.2-12.9,11.2C253.5,97.7,248.4,93.2,248.4,89.6z"/>
	<path d="M289.2,94.9h6.2V57.9h-13v7.3h-2.5v-9.5h33.5v9.5h-2.5v-7.3h-12.9v36.9h6.1V97h-14.8V94.9z"/>
	<path d="M333.3,94.9h5.7V57.9h-5.7v-2.2h28.5v9.2h-2.5v-7h-17.7v17.6h14.4v2.2h-14.4v17.1h6.2V97h-14.4V94.9z"/>
	<path d="M368.2,94.9h6V57.9h-6v-2.2h14.7v2.2h-6.1v36.9h6.1V97h-14.7V94.9z"/>
	<path d="M397.1,60.2v34.7h5.9V97h-14.1v-2.2h5.7V57.9h-5.7v-2.2h7.9L423.3,92v-34h-5.8v-2.2h13.9v2.2h-5.7v39.3h-1.5L397.1,60.2z"
		/>
	<path d="M436.5,94.9h5.7V57.9h-5.7v-2.2h29.1v9.2h-2.5v-7h-18.3v16.9h14.6v2.3h-14.6v17.8h18.3v-7h2.5V97h-29.1V94.9z"/>
	<path d="M473,94.9h5.7V57.9H473v-2.2h15.5c8.7,0,14.1,4.8,14.1,11.6c0,6-4,10-10,11.4l10.3,16.2h5V97h-6.8l-11.2-18
		c-0.7,0.1-1.6,0.1-2.4,0.1c-2.3,0-4.5,0-6.2-0.1v15.7h5.8V97H473V94.9z M499.9,67.3c0-5.8-4.5-9.4-11.7-9.4h-7v19
		c1.9,0.1,4.1,0.1,6.3,0.1C494.8,77,499.9,73.7,499.9,67.3z"/>
	<path d="M518.2,94.9h6.3V79.8l-12.8-21.9h-4.7v-2.2h12.8v2.2h-5.2L526,77.6l11.2-19.7H532v-2.2h12.8v2.2H540l-12.7,21.9v15.1h6.3
		V97h-15.3V94.9z"/>
</g>
</svg>
